<?xml version="1.0" encoding="utf-8"?>
<!-- Generator: Adobe Illustrator 28.1.0, SVG Export Plug-In . SVG Version: 6.00 Build 0)  -->
<svg version="1.1" id="Layer_1" xmlns="http://www.w3.org/2000/svg" xmlns:xlink="http://www.w3.org/1999/xlink" x="0px" y="0px"
	 viewBox="0 0 595.28 841.89" style="enable-background:new 0 0 595.28 841.89;" xml:space="preserve">
<style type="text/css">
	.st0{fill:#005CA8;}
	.st1{fill:#FFFFFF;}
</style>
<rect width="602.32" height="841.89"/>
<g>
	<circle class="st0" cx="298.6" cy="407.31" r="17.74"/>
	<g>
		<g>
			<path class="st1" d="M297.68,402.89c5.21-8.78,4.28-19.94-1.98-27.96c-6.47-8.3-17.59-11.58-27.76-9.84
				c-22.84,3.91-34.1,31.79-18.52,49.62c7.29,8.34,17.56,10.76,26.54,16.48c10.83,6.89,7.17,20.68,0.5,29.26
				c-3.11,3.99-7.46,7.65-12.71,7.94c-6.09,0.34-12.32-3.34-17.5-6.13c-3.3-1.78-9.71-4.02-8.44-8.75c1.37-5.1,8.1-4.7,11.66-2.38
				c5.27,3.43,6.63,9.72,8.38,15.31c1.81,5.76,4.37,11.14,8.84,15.33c9.11,8.55,23.14,10.21,33.49,2.86
				c6.25-4.43,0.26-14.84-6.06-10.36c-10.64,7.55-21.29-0.15-24.7-11.02c-3.28-10.46-7.56-21.41-19.14-24.88
				c-9.76-2.93-21.2,1.65-24.04,11.95c-3.27,11.87,6.31,18.32,15.46,23.1c10.16,5.31,21.49,9.81,32.55,4.3
				c10.27-5.11,18.1-16.85,20.12-27.97c2.05-11.23-2.1-22.17-11.7-28.51c-8.72-5.75-20.81-7.71-26.45-17.43
				c-6.65-11.46,2.21-25.64,14.76-27.12c10.99-1.29,23,8.89,16.33,20.13C283.36,403.49,293.73,409.54,297.68,402.89L297.68,402.89z"
				/>
		</g>
	</g>
	<g>
		<g>
			<path class="st1" d="M298.94,421.79c7.65-4.88,15.38-9.64,23.2-14.26c3.63-2.14,7.28-4.26,10.94-6.34
				c3.03-1.72,8.08-5.99,11.55-5.39c2.81,0.48,6.15,3.39,8.53,4.94c3.1,2.01,6.04,4.21,8.64,6.83c4.44,4.47,7.62,10.19,6.94,16.67
				c-0.6,5.74-4.09,10.26-10.11,10.63c-7.39,0.45-14.99-5.03-19.67-10.33c-1.37-1.55-3.34-4.25,0.01-2.78
				c2.6,1.14,3.33,5.61,3.74,8.06c1.15,6.91,0.27,15.06-4.47,20.54c-4.32,5-12.05,7.56-17.86,3.57c-5.66-3.89-8.06-11.65-8.8-18.14
				c-0.87-7.58-12.88-7.67-12,0c1.2,10.45,4.75,21.38,13.68,27.76c8.82,6.3,20.54,5.33,29.12-0.89
				c9.34-6.78,13.33-18.47,12.66-29.73c-0.6-10.17-5.01-23.64-17.45-23.38c-4.62,0.09-9.11,2.28-11.3,6.48
				c-2.99,5.74-0.28,11.99,3.66,16.44c7.58,8.57,19.35,15.66,31.11,14.19c10.41-1.3,17.75-9.39,19.34-19.56
				c1.74-11.19-3.16-21.49-11.23-29.07c-4.59-4.31-9.94-7.8-15.38-10.92c-6.39-3.66-11.54-4.41-18.35-0.96
				c-14.65,7.44-28.73,16.47-42.57,25.3C286.39,415.57,292.4,425.96,298.94,421.79L298.94,421.79z"/>
		</g>
	</g>
</g>
</svg>
